# xmcd CD database generated by RipIT
#
# Track frame offsets:
# 150
# 18142
# 32920
# 56130
# 68099
# 92357
# 116219
# 132936
# 154049
# 175332
#
# Disc length: 2589 seconds
#
# Revision: 0
# Processed by: cddbd v1.5.2PL0 Copyright (c) Steve Scherf et al.
# Submitted via: RipIT 3.6.0 www.suwald.com/ripit/ripit.html on 2009-07-06 at 22:18
#
DISCID=7f0a1b0a
DTITLE=Katey Laurel - Upstairs Downstairs
DYEAR=2008
DGENRE=
TTITLE0=Twentysomething
TTITLE1=Angels in the Attic
TTITLE2=Earthquake
TTITLE3=You
TTITLE4=No One Else
TTITLE5=Waiting
TTITLE6=It's All the Same
TTITLE7=Spiral-Bound Notebook
TTITLE8=See-Through
TTITLE9=Something to Believe In
EXTD=
EXTT0=
EXTT1=
EXTT2=
EXTT3=
EXTT4=
EXTT5=
EXTT6=
EXTT7=
EXTT8=
EXTT9=
PLAYORDER=
